<svg xmlns="http://www.w3.org/2000/svg" width="400" height="400" enable-background="new 0 0 400 400" viewBox="0 0 400 400"><path fill="#2A94F4" d="M363.319,127.21H36.681c-9.649,0-17.499,7.849-17.499,17.497v192.484c0,9.648,7.85,17.499,17.499,17.499
					h326.638c9.648,0,17.498-7.85,17.498-17.499V144.708C380.817,135.059,372.968,127.21,363.319,127.21z"/><path fill="#FFBE55" d="M357.646,308.028v17.497c0,3.222-2.611,5.833-5.832,5.833H48.506c-3.221,0-5.833-2.612-5.833-5.833
					v-17.497l34.837-17.499l139.988,5.832l116.655-5.832L357.646,308.028z"/><path fill="#FCD2B1" d="M50.857 316.081c47.93-19.787 102.136-18.583 149.303 3.612V109.711c-48.722-22.927-104.954-23.455-154.022-1.587-2.112.941-3.464 3.079-3.464 5.39v197.234C42.673 314.962 46.963 317.688 50.857 316.081zM200.16 319.692c47.167-22.195 101.372-23.398 149.302-3.612 3.895 1.608 8.184-1.119 8.184-5.332V113.515c0-2.312-1.353-4.449-3.463-5.39-49.069-21.868-105.301-21.34-154.022 1.587V319.692z"/><path fill="#868491" d="M223.49,281.6c-2.482,0-4.784-1.596-5.564-4.087c-0.963-3.073,0.745-6.348,3.816-7.313
						c5.901-1.854,11.973-3.438,18.051-4.71c3.144-0.661,6.243,1.352,6.903,4.512c0.661,3.152-1.355,6.243-4.511,6.903
						c-5.708,1.196-11.409,2.686-16.946,4.426C224.658,281.512,224.066,281.6,223.49,281.6z"/><path fill="#0E538C" d="M334.314 281.6c-.575 0-1.168-.088-1.748-.271-22.01-6.912-44.823-9.501-67.785-7.672-3.258.233-6.021-2.145-6.276-5.354-.251-3.212 2.143-6.021 5.354-6.277 24.504-1.925 48.771.814 72.204 8.174 3.07.965 4.78 4.241 3.816 7.313C339.099 280.005 336.798 281.6 334.314 281.6zM334.314 258.201c-.575 0-1.168-.088-1.748-.271-35.111-11.028-72.215-11.028-107.326 0-3.086.965-6.357-.747-7.314-3.816-.962-3.074.746-6.348 3.816-7.313 37.401-11.746 76.921-11.746 114.321 0 3.07.965 4.78 4.24 3.816 7.313C339.099 256.606 336.798 258.201 334.314 258.201z"/><path fill="#868491" d="M223.49,234.938c-2.482,0-4.784-1.597-5.564-4.087c-0.963-3.073,0.745-6.349,3.816-7.314
						c21.469-6.738,43.746-9.607,66.188-8.553c3.213,0.155,5.702,2.885,5.547,6.104c-0.147,3.223-2.836,5.684-6.106,5.55
						c-21.058-0.994-41.98,1.701-62.133,8.029C224.658,234.85,224.066,234.938,223.49,234.938z"/><path fill="#0E538C" d="M334.314 234.938c-.575 0-1.168-.088-1.748-.271-7.371-2.316-14.975-4.173-22.603-5.517-3.173-.562-5.292-3.585-4.728-6.758.559-3.17 3.589-5.292 6.756-4.73 8.124 1.433 16.217 3.409 24.072 5.875 3.071.965 4.779 4.241 3.816 7.314C339.099 233.343 336.798 234.938 334.314 234.938zM334.314 211.538c-.575 0-1.168-.088-1.748-.27-35.111-11.028-72.215-11.028-107.326 0-3.086.958-6.357-.749-7.314-3.816-.962-3.074.746-6.349 3.816-7.314 37.401-11.745 76.921-11.745 114.321 0 3.07.965 4.78 4.24 3.816 7.314C339.099 209.943 336.798 211.538 334.314 211.538z"/><path fill="#868491" d="M223.49,188.207c-2.482,0-4.784-1.595-5.564-4.087c-0.963-3.073,0.745-6.348,3.816-7.313
						c11.734-3.686,23.877-6.243,36.107-7.599c3.248-0.39,6.089,1.958,6.442,5.152c0.353,3.202-1.954,6.086-5.155,6.439
						c-11.478,1.276-22.886,3.678-33.897,7.138C224.658,188.118,224.066,188.207,223.49,188.207z"/><path fill="#0E538C" d="M334.314,188.207c-0.575,0-1.168-0.088-1.748-0.27c-16.468-5.176-33.567-7.938-50.833-8.208
						c-3.224-0.051-5.792-2.704-5.741-5.924c0.05-3.218,2.865-5.93,5.923-5.741c18.387,0.29,36.609,3.232,54.147,8.743
						c3.07,0.966,4.78,4.241,3.816,7.314C339.093,186.612,336.798,188.207,334.314,188.207z"/><path fill="#868491" d="M223.49,164.944c-2.482,0-4.784-1.595-5.564-4.086c-0.963-3.073,0.745-6.349,3.816-7.314
						c25.415-7.983,51.72-10.547,78.219-7.598c3.201,0.352,5.508,3.237,5.154,6.439c-0.353,3.199-3.178,5.568-6.442,5.152
						c-24.858-2.756-49.574-0.362-73.435,7.137C224.658,164.855,224.066,164.944,223.49,164.944z"/><path fill="#0E538C" d="M334.314,164.944c-0.575,0-1.168-0.089-1.748-0.271c-3.702-1.166-7.502-2.221-11.301-3.146
						c-3.127-0.764-5.047-3.919-4.284-7.049c0.764-3.13,3.896-5.044,7.052-4.286c4.039,0.986,8.082,2.113,12.03,3.352
						c3.07,0.965,4.78,4.241,3.816,7.314C339.099,163.349,336.798,164.944,334.314,164.944z"/><path fill="#868491" d="M223.49,141.545c-2.482,0-4.784-1.598-5.564-4.089c-0.963-3.076,0.745-6.348,3.821-7.312
						c4.01-1.259,8.055-2.384,12.025-3.349c3.11-0.767,6.283,1.158,7.045,4.289c0.763,3.13-1.162,6.285-4.289,7.045
						c-3.726,0.906-7.524,1.962-11.295,3.144C224.652,141.456,224.066,141.545,223.49,141.545z"/><path fill="#0E538C" d="M334.314 141.545c-.575 0-1.168-.088-1.748-.271-23.867-7.499-48.571-9.891-73.435-7.137-3.224.393-6.089-1.957-6.442-5.152-.353-3.201 1.954-6.087 5.154-6.44 26.487-2.947 52.797-.383 78.22 7.599 3.07.965 4.779 4.241 3.816 7.314C339.099 139.949 336.798 141.545 334.314 141.545zM66.005 281.6c-2.483 0-4.785-1.596-5.565-4.087-.962-3.073.746-6.348 3.816-7.313 5.901-1.854 11.974-3.438 18.051-4.71 3.15-.661 6.244 1.352 6.904 4.512.661 3.152-1.355 6.243-4.512 6.903-5.708 1.196-11.409 2.686-16.945 4.426C67.172 281.512 66.58 281.6 66.005 281.6zM176.828 258.201c-.575 0-1.168-.088-1.748-.271-35.111-11.028-72.215-11.028-107.326 0-3.099.965-6.357-.747-7.313-3.816-.962-3.074.746-6.348 3.816-7.313 37.401-11.746 76.92-11.746 114.321 0 3.07.965 4.78 4.24 3.816 7.313C181.613 256.606 179.312 258.201 176.828 258.201zM66.005 234.938c-2.483 0-4.785-1.597-5.565-4.087-.962-3.073.746-6.349 3.816-7.314 21.468-6.738 43.763-9.607 66.188-8.553 3.212.155 5.702 2.885 5.548 6.104-.154 3.223-2.871 5.684-6.106 5.55-21.065-.994-41.98 1.701-62.134 8.029C67.172 234.85 66.58 234.938 66.005 234.938zM176.828 234.938c-.575 0-1.168-.088-1.748-.271-7.371-2.316-14.975-4.173-22.602-5.517-3.173-.562-5.292-3.585-4.728-6.758.553-3.17 3.595-5.292 6.756-4.73 8.123 1.433 16.217 3.409 24.072 5.875 3.07.965 4.779 4.241 3.816 7.314C181.613 233.343 179.312 234.938 176.828 234.938zM66.005 211.538c-2.483 0-4.785-1.596-5.565-4.086-.962-3.074.746-6.349 3.816-7.314 33.157-10.41 68.535-11.569 102.285-3.35 3.133.763 5.053 3.919 4.289 7.049-.763 3.127-3.936 5.033-7.046 4.287-31.693-7.728-64.902-6.631-96.031 3.144C67.172 211.449 66.58 211.538 66.005 211.538zM66.005 188.207c-2.483 0-4.785-1.595-5.565-4.087-.962-3.073.746-6.348 3.816-7.313 11.734-3.686 23.878-6.243 36.107-7.599 3.218-.39 6.089 1.958 6.442 5.152.354 3.202-1.954 6.086-5.155 6.439-11.477 1.276-22.887 3.678-33.897 7.138C67.172 188.118 66.58 188.207 66.005 188.207zM165.169 184.957c-.456 0-.923-.055-1.384-.166-12.93-3.149-26.236-4.856-39.537-5.063-3.225-.051-5.793-2.703-5.742-5.923.051-3.219 2.569-5.93 5.924-5.742 14.171.226 28.338 2.04 42.111 5.395 3.133.763 5.053 3.918 4.29 7.049C170.181 183.172 167.794 184.957 165.169 184.957zM66.005 164.944c-2.483 0-4.785-1.595-5.565-4.086-.962-3.073.746-6.349 3.816-7.314 25.422-7.983 51.726-10.547 78.219-7.598 3.202.352 5.508 3.237 5.155 6.439-.353 3.199-3.202 5.568-6.442 5.152-24.858-2.756-49.573-.362-73.435 7.137C67.172 164.855 66.58 164.944 66.005 164.944zM66.005 141.545c-2.483 0-4.785-1.598-5.565-4.089-.962-3.076.746-6.348 3.822-7.312 4.01-1.259 8.054-2.384 12.024-3.349 3.105-.767 6.283 1.158 7.046 4.289.763 3.13-1.162 6.285-4.29 7.045-3.725.906-7.524 1.962-11.295 3.144C67.167 141.456 66.58 141.545 66.005 141.545z"/><polygon fill="#FFE3CA" points="200.16 109.711 322.647 45.31 322.647 266.514 200.16 319.692"/><path fill="#0E538C" d="M289.933 100.342l-69.816 33.208c-2.754 1.309-6.049.138-7.358-2.616l0 0c-1.31-2.755-.14-6.05 2.614-7.358l69.816-33.208c2.754-1.308 6.049-.139 7.358 2.615l0 0C293.859 95.739 292.688 99.033 289.933 100.342zM289.933 129.928l-69.816 33.208c-2.754 1.309-6.049.138-7.358-2.616l0 0c-1.31-2.754-.14-6.049 2.614-7.358l69.816-33.208c2.754-1.309 6.049-.139 7.358 2.615l0 0C293.859 125.325 292.688 128.619 289.933 129.928zM289.933 159.514l-69.816 33.208c-2.754 1.309-6.049.138-7.358-2.616l0 0c-1.31-2.754-.14-6.049 2.614-7.358l69.816-33.208c2.754-1.309 6.049-.139 7.358 2.615l0 0C293.859 154.911 292.688 158.205 289.933 159.514zM289.933 189.1l-69.816 33.208c-2.754 1.309-6.049.138-7.358-2.616l0 0c-1.31-2.754-.14-6.049 2.614-7.358l69.816-33.208c2.754-1.309 6.049-.139 7.358 2.615l0 0C293.859 184.497 292.688 187.791 289.933 189.1zM289.933 218.686l-69.816 33.208c-2.754 1.309-6.049.138-7.358-2.616l0 0c-1.31-2.754-.14-6.049 2.614-7.358l69.816-33.208c2.754-1.309 6.049-.139 7.358 2.615l0 0C293.859 214.083 292.688 217.376 289.933 218.686zM289.933 248.271l-69.816 33.208c-2.754 1.309-6.049.138-7.358-2.616l0 0c-1.31-2.754-.14-6.049 2.614-7.358l69.816-33.208c2.754-1.309 6.049-.139 7.358 2.615l0 0C293.859 243.669 292.688 246.962 289.933 248.271z"/><rect width="22.424" height="22.978" x="189.798" y="331.358" fill="#0E538C"/></svg>